<svg width="24" height="24" viewBox="0 0 24 24" fill="none" xmlns="http://www.w3.org/2000/svg">
<g clip-path="url(#clip0_7_344)">
<g clip-path="url(#clip1_7_344)">
<path d="M10.5844 21.9469L10.4672 21.8391L2.25469 14.2125C0.815625 12.8766 0 11.0016 0 9.0375V8.88281C0 5.58281 2.34375 2.75156 5.5875 2.13281C7.43437 1.77656 9.32344 2.20312 10.8281 3.2625C11.25 3.5625 11.6438 3.90938 12 4.30781C12.1969 4.08281 12.4078 3.87656 12.6328 3.68438C12.8062 3.53437 12.9844 3.39375 13.1719 3.2625C14.6766 2.20312 16.5656 1.77656 18.4125 2.12812C21.6562 2.74687 24 5.58281 24 8.88281V9.0375C24 11.0016 23.1844 12.8766 21.7453 14.2125L13.5328 21.8391L13.4156 21.9469C13.0312 22.3031 12.525 22.5047 12 22.5047C11.475 22.5047 10.9688 22.3078 10.5844 21.9469ZM11.2078 6.79688C11.1891 6.78281 11.175 6.76406 11.1609 6.74531L10.3266 5.80781L10.3219 5.80312C9.23906 4.58906 7.60313 4.03594 6.00938 4.34062C3.825 4.75781 2.25 6.66094 2.25 8.88281V9.0375C2.25 10.3734 2.80781 11.6531 3.7875 12.5625L12 20.1891L20.2125 12.5625C21.1924 11.6521 21.7495 10.3751 21.75 9.0375V8.88281C21.75 6.66563 20.175 4.75781 17.9953 4.34062C16.4016 4.03594 14.7609 4.59375 13.6828 5.80312L13.6781 5.80781L13.6734 5.8125L12.8391 6.75C12.825 6.76875 12.8063 6.78281 12.7922 6.80156C12.5813 7.0125 12.2953 7.12969 12 7.12969C11.7047 7.12969 11.4187 7.0125 11.2078 6.80156" fill="currentColor"/>
</g>
</g>
<defs>
<clipPath id="clip0_7_344">
<rect width="24" height="24" fill="white"/>
</clipPath>
<clipPath id="clip1_7_344">
<rect width="24" height="24" fill="white"/>
</clipPath>
</defs>
</svg>
